<svg id="Logo" xmlns="http://www.w3.org/2000/svg" xmlns:xlink="http://www.w3.org/1999/xlink" width="578" height="176" viewBox="0 0 578 176">
  <metadata><?xpacket begin="﻿" id="W5M0MpCehiHzreSzNTczkc9d"?>
<x:xmpmeta xmlns:x="adobe:ns:meta/" x:xmptk="Adobe XMP Core 5.6-c140 79.160451, 2017/05/06-01:08:21        ">
   <rdf:RDF xmlns:rdf="http://www.w3.org/1999/02/22-rdf-syntax-ns#">
      <rdf:Description rdf:about=""/>
   </rdf:RDF>
</x:xmpmeta>
                                                                                                    
                                                                                                    
                                                                                                    
                                                                                                    
                                                                                                    
                                                                                                    
                                                                                                    
                                                                                                    
                                                                                                    
                                                                                                    
                                                                                                    
                                                                                                    
                                                                                                    
                                                                                                    
                                                                                                    
                                                                                                    
                                                                                                    
                                                                                                    
                                                                                                    
                                                                                                    
                           
<?xpacket end="w"?></metadata>
<defs>
    <style>
      .cls-1 {
        fill: url(#linear-gradient);
      }

      .cls-2 {
        mix-blend-mode: multiply;
        fill: url(#linear-gradient-2);
        filter: url(#filter);
      }

      .cls-3, .cls-4 {
        fill: #fff;
        fill-rule: evenodd;
      }

      .cls-3 {
        opacity: 0.9;
      }
    </style>
    <linearGradient id="linear-gradient" x1="244.162" x2="333.838" y2="176" gradientUnits="userSpaceOnUse">
      <stop offset="0" stop-color="#386cff"/>
      <stop offset="1" stop-color="#1ba9ff"/>
    </linearGradient>
    <linearGradient id="linear-gradient-2" x1="89.75" y1="159.688" x2="89.75" y2="16.625" gradientUnits="userSpaceOnUse">
      <stop offset="0" stop-color="#13a9e0"/>
      <stop offset="1" stop-color="#113acc"/>
    </linearGradient>
    <filter id="filter" x="17.5" y="16.625" width="144.5" height="143.063" filterUnits="userSpaceOnUse">
      <feGaussianBlur result="blur" stdDeviation="8.246" in="SourceAlpha"/>
      <feFlood result="flood" flood-opacity="0.16"/>
      <feComposite result="composite" operator="out" in2="blur"/>
      <feOffset result="offset" dy="13"/>
      <feComposite result="composite-2" operator="in" in2="SourceAlpha"/>
      <feBlend result="blend" in2="SourceGraphic"/>
    </filter>
  </defs>
  <rect id="BG" class="cls-1" width="578" height="176" rx="88" ry="88"/>
  <g id="Content">
    <ellipse id="Clock_BG_Elliipse" data-name="Clock BG Elliipse" class="cls-2" cx="89.75" cy="88.156" rx="72.25" ry="71.531"/>
    <g id="Clock_Hands" data-name="Clock Hands">
      <path id="Rounded_Rectangle_1" data-name="Rounded Rectangle 1" class="cls-3" d="M135.226,46.954a8.844,8.844,0,0,1,0,12.514L96.759,97.9A8.852,8.852,0,0,1,84.235,85.389L122.7,46.954A8.861,8.861,0,0,1,135.226,46.954Z"/>
      <path id="Rounded_Rectangle_1_copy" data-name="Rounded Rectangle 1 copy" class="cls-3" d="M57.019,67.9L93.384,82.578a9.482,9.482,0,1,1-7.107,17.581L49.912,85.483A9.482,9.482,0,1,1,57.019,67.9Z"/>
    </g>
    <g id="Type">
      <path id="Hou" class="cls-4" d="M201.222,118.053c2.062,0,2.97-.907,2.97-2.969V96.771h13.776v18.313c0,2.062.907,2.969,2.969,2.969h12.786c2.063,0,2.97-.907,2.97-2.969V61.63c0-2.062-.907-2.97-2.97-2.97H220.937c-2.062,0-2.969.907-2.969,2.97v17.9H204.192V61.63c0-2.062-.908-2.97-2.97-2.97H188.436c-2.062,0-2.97.907-2.97,2.97v53.454c0,2.062.908,2.969,2.97,2.969h12.786Zm99.242-15.59V74.334c0-10.064-4.949-16.91-25.572-16.91s-25.654,6.847-25.654,16.911v28.129c0,10.064,5.032,16.828,25.654,16.828S300.464,112.527,300.464,102.463Zm-32.5-2.97V77.3c0-2.145.99-3.795,6.929-3.795,6.022,0,6.93,1.65,6.93,3.795v22.19c0,2.227-.908,3.877-6.93,3.877C268.953,103.37,267.963,101.72,267.963,99.493Zm95.614,2.97V61.63c0-2.062-.908-2.97-2.97-2.97H348.069c-2.145,0-2.97.907-2.97,2.97V99.246c0,2.227-.99,3.877-6.847,3.877-5.774,0-6.764-1.65-6.764-3.877V61.63c0-2.062-.907-2.97-2.97-2.97h-12.95c-2.063,0-2.97.907-2.97,2.97v40.833c0,10.064,5.032,16.828,25.489,16.828S363.577,112.527,363.577,102.463Z"/>
      <path id="L" class="cls-4" d="M482.612,101.53c2.062,0,2.969.907,2.969,2.969v10.585c0,2.062-.907,2.969-2.969,2.969H442.824c-2.062,0-2.97-.907-2.97-2.969V61.63c0-2.062.908-2.97,2.97-2.97H455.61c2.062,0,2.97.907,2.97,2.97v39.733h24.3Z"/>
      <path id="y" class="cls-4" d="M516.651,118.053c2.062,0,2.97-.907,2.97-2.969V104.607l12.538-16.992c2.475-3.382,3.135-5.032,3.135-10.146V61.63c0-2.062-.908-2.97-2.97-2.97H520.033c-2.062,0-2.97.907-2.97,2.97V75.158a5.9,5.9,0,0,1-.742,3.465l-3.8,5.939a2.137,2.137,0,0,1-1.979,1.4h-0.825a2.137,2.137,0,0,1-1.98-1.4l-3.8-5.939a5.9,5.9,0,0,1-.742-3.465V61.63c0-2.062-.907-2.97-2.97-2.97h-12.7c-2.062,0-2.97.907-2.97,2.97V77.468c0,5.114.578,6.764,3.135,10.146l12.621,16.911v10.559c0,2.062.825,2.969,2.969,2.969h13.364Z"/>
      <path id="r" class="cls-4" d="M394.505,73.509h6.187c2.887,0,3.629,1.65,3.629,3.877v2.8c0,2.227-.742,3.877-3.629,3.877h-6.187V73.509Zm-2.97,44.544c2.062,0,2.97-.907,2.97-2.969V98.916h11.548c2.31,0,3.135,1.072,3.135,3.547v12.621c0,2.062.907,2.969,2.97,2.969h12.786c2.062,0,2.969-.907,2.969-2.969V97.6c0-6.929-3.959-11.3-9.981-11.961,3.465-1.485,4.62-4.784,4.62-9.4V72.436c0-8.166-3.878-13.776-16.251-13.776H378.832c-2.063,0-2.97.907-2.97,2.97v53.454c0,2.062.907,2.969,2.97,2.969h12.7Z"/>
    </g>
  </g>
</svg>
