<svg xmlns="http://www.w3.org/2000/svg" viewBox="0 0 283.46 79.52"><defs><style>.cls-1{fill:#fff;}.cls-2{fill:#67bd48;}</style></defs><title>Asset 1</title><g id="Layer_2" data-name="Layer 2"><g id="Artwork"><path class="cls-1" d="M126.52,60.05h-6.35v1.1l1.66.13V73.85l-1.66.13v1.09h4.73V74l-1.66-.13V68.91h3.28a5.26,5.26,0,0,0,3.68-1.2,4.62,4.62,0,0,0,0-6.45A5.26,5.26,0,0,0,126.52,60.05Zm0,7.63h-3.28V61.29h3.28a3.64,3.64,0,0,1,2.69.91,3.18,3.18,0,0,1,.88,2.3,3.11,3.11,0,0,1-.89,2.27A3.62,3.62,0,0,1,126.52,67.68Z"/><path class="cls-1" d="M139.52,63.77a2.49,2.49,0,0,0-.38-.08,3.57,3.57,0,0,0-.46,0,3.3,3.3,0,0,0-2,.6,3.86,3.86,0,0,0-1.14,1.29l-.14-1.68h-2.91V65l1.66.13v8.76l-1.66.13v1.09h4.73V74l-1.66-.13V67.38a3.45,3.45,0,0,1,1-1.71,2.63,2.63,0,0,1,1.81-.63l1,.07.19-1.32Z"/><path class="cls-1" d="M144.32,63.65a4.34,4.34,0,0,0-3.36,1.6,5.89,5.89,0,0,0-1.38,4v.56A5.71,5.71,0,0,0,141,73.73a4.56,4.56,0,0,0,3.52,1.56,6.1,6.1,0,0,0,2.29-.39,4.52,4.52,0,0,0,1.61-1.06l.05-.06-.63-1-.09.1a3.72,3.72,0,0,1-1.34.88,5.3,5.3,0,0,1-1.89.31A3.08,3.08,0,0,1,142,72.84a4.82,4.82,0,0,1-1-3V69.6h7.78V68.46A5,5,0,0,0,147.58,65,4.2,4.2,0,0,0,144.32,63.65Zm0,1.24a2.84,2.84,0,0,1,2.22.93,3.48,3.48,0,0,1,.82,2.34v.21h-6.27a4.4,4.4,0,0,1,1-2.48A2.84,2.84,0,0,1,144.32,64.89Z"/><path class="cls-1" d="M166.48,68.55a5.81,5.81,0,0,0-1-3.69,3.44,3.44,0,0,0-2.8-1.21,3.8,3.8,0,0,0-2.3.69A4.32,4.32,0,0,0,159,66a3.39,3.39,0,0,0-1.17-1.68,3.61,3.61,0,0,0-2.16-.64,4.15,4.15,0,0,0-2.16.55,3.85,3.85,0,0,0-1.29,1.25l-.09-1.59h-2.94V65l1.66.13v8.76l-1.66.13v1.09H154V74l-1.66-.13v-6.6a3.48,3.48,0,0,1,1-1.71,3,3,0,0,1,2-.63,2.38,2.38,0,0,1,1.92.83,4.33,4.33,0,0,1,.71,2.79v5.32l-1.66.13v1.09h4.74V74l-1.66-.13V68.37a1,1,0,0,0,0-.19V68a4.29,4.29,0,0,1,.93-2.26,2.66,2.66,0,0,1,2.12-.87,2.39,2.39,0,0,1,1.92.81,4.39,4.39,0,0,1,.69,2.81v5.31l-1.66.15v1.08h4.76V74l-1.66-.15Z"/><polygon class="cls-1" points="171.6 63.86 168.53 63.86 168.53 64.96 170.19 65.09 170.19 73.85 168.53 73.98 168.53 75.07 173.26 75.07 173.26 73.98 171.6 73.85 171.6 63.86"/><rect class="cls-1" x="170.19" y="58.99" width="1.41" height="1.91"/><path class="cls-1" d="M183.33,63.86h-3V65l1.57.13v6.72a3.2,3.2,0,0,1-1.12,1.63,3.55,3.55,0,0,1-2.14.59,2.26,2.26,0,0,1-1.88-.84,4.67,4.67,0,0,1-.66-2.83v-6.5h-2.78V65l1.37.14v5.25a5.83,5.83,0,0,0,1,3.73,3.46,3.46,0,0,0,2.8,1.22,4.28,4.28,0,0,0,2.18-.55A3.76,3.76,0,0,0,182,73.49l.09,1.58h2.74V74l-1.47-.14Z"/><path class="cls-1" d="M202.54,68.55a5.75,5.75,0,0,0-1-3.69,3.43,3.43,0,0,0-2.8-1.21,3.8,3.8,0,0,0-2.3.69A4.39,4.39,0,0,0,195.11,66a3.45,3.45,0,0,0-1.17-1.68,3.62,3.62,0,0,0-2.17-.64,4.18,4.18,0,0,0-2.16.55,3.91,3.91,0,0,0-1.28,1.25l-.1-1.59H185.3V65l1.66.13v8.76L185.3,74v1.09H190V74l-1.66-.13v-6.6a3.41,3.41,0,0,1,1-1.71,3,3,0,0,1,2-.63,2.4,2.4,0,0,1,1.93.83,4.4,4.4,0,0,1,.7,2.79v5.32l-1.66.13v1.09h4.74V74l-1.66-.13V68.18c0-.05,0-.1,0-.14a4.29,4.29,0,0,1,.93-2.26,2.66,2.66,0,0,1,2.12-.87,2.37,2.37,0,0,1,1.92.81,4.39,4.39,0,0,1,.7,2.81v5.31l-1.66.15v1.08h4.75V74l-1.66-.15Z"/><polygon class="cls-1" points="208.64 61.15 210.3 61.28 210.3 73.85 208.64 73.98 208.64 75.07 213.37 75.07 213.37 73.98 211.71 73.85 211.71 68.13 217.9 68.13 217.9 66.88 211.71 66.88 211.71 61.29 218.59 61.29 218.69 63.51 219.96 63.51 219.96 60.05 208.64 60.05 208.64 61.15"/><path class="cls-1" d="M230.13,63.86h-3V65l1.57.13v6.72a3.19,3.19,0,0,1-1.11,1.63,3.56,3.56,0,0,1-2.15.59,2.25,2.25,0,0,1-1.87-.84,4.67,4.67,0,0,1-.67-2.83v-6.5h-2.77V65l1.36.14v5.25a5.77,5.77,0,0,0,1,3.73,3.45,3.45,0,0,0,2.8,1.22,4.21,4.21,0,0,0,2.17-.55,3.67,3.67,0,0,0,1.29-1.25l.1,1.58h2.74V74l-1.48-.14Z"/><path class="cls-1" d="M242.42,68.26a5.3,5.3,0,0,0-1-3.48,3.5,3.5,0,0,0-2.8-1.13,4.17,4.17,0,0,0-2.19.57,4.1,4.1,0,0,0-1.3,1.32l-.1-1.68h-2.93V65l1.66.13v8.76l-1.66.13v1.09h4.74V74l-1.66-.13V67.3a3.62,3.62,0,0,1,1.13-1.73,3,3,0,0,1,2-.66,2.51,2.51,0,0,1,1.94.75,4,4,0,0,1,.68,2.61v5.58l-1.66.13v1.09h4.74V74l-1.66-.13Z"/><path class="cls-1" d="M253.07,59H250v1.1l1.66.13v5.07a3.88,3.88,0,0,0-3.3-1.64,3.7,3.7,0,0,0-3.19,1.63A7.28,7.28,0,0,0,244,69.56v.21a6.46,6.46,0,0,0,1.14,4,3.75,3.75,0,0,0,3.17,1.52,4.32,4.32,0,0,0,2.08-.48,3.88,3.88,0,0,0,1.29-1.13l.09,1.39h2.94V74l-1.66-.13Zm-1.42,8v5.17a3.45,3.45,0,0,1-1.18,1.4,3.38,3.38,0,0,1-1.91.51,2.57,2.57,0,0,1-2.32-1.14,5.48,5.48,0,0,1-.79-3.12v-.21a6.41,6.41,0,0,1,.8-3.38,2.54,2.54,0,0,1,2.33-1.27,3.08,3.08,0,0,1,1.93.57A3.79,3.79,0,0,1,251.65,67Z"/><rect class="cls-1" x="257.15" y="58.99" width="1.41" height="1.91"/><polygon class="cls-1" points="258.56 63.86 255.49 63.86 255.49 64.96 257.15 65.09 257.15 73.85 255.49 73.98 255.49 75.07 260.22 75.07 260.22 73.98 258.56 73.85 258.56 63.86"/><path class="cls-1" d="M271.28,68.26a5.3,5.3,0,0,0-1-3.48,3.49,3.49,0,0,0-2.8-1.13,4.2,4.2,0,0,0-2.19.57A4.07,4.07,0,0,0,264,65.54l-.1-1.68H261V65l1.66.13v8.76L261,74v1.09h4.74V74l-1.66-.13V67.3a3.62,3.62,0,0,1,1.13-1.73,3,3,0,0,1,2-.66,2.51,2.51,0,0,1,1.94.75,4,4,0,0,1,.68,2.61v5.58L268.2,74v1.09h4.74V74l-1.66-.13Z"/><path class="cls-1" d="M280.78,63.86l-.12,1.55a4.22,4.22,0,0,0-1.3-1.23,4,4,0,0,0-2.08-.53,3.73,3.73,0,0,0-3.2,1.63,7.28,7.28,0,0,0-1.14,4.28v.21a6.46,6.46,0,0,0,1.14,4,3.77,3.77,0,0,0,3.18,1.52,4.38,4.38,0,0,0,2.06-.47,3.91,3.91,0,0,0,1.26-1.07v1.08a3.77,3.77,0,0,1-.77,2.51,2.84,2.84,0,0,1-2.28.89,6.13,6.13,0,0,1-1.51-.17,6.35,6.35,0,0,1-1.37-.48l-.11,0-.38,1.22.07,0a6.83,6.83,0,0,0,1.6.54,8.23,8.23,0,0,0,1.72.19,4.29,4.29,0,0,0,3.28-1.26A4.85,4.85,0,0,0,282,74.83v-11Zm-.2,3.15v5.07a3.45,3.45,0,0,1-1.17,1.43,3.39,3.39,0,0,1-1.92.52,2.67,2.67,0,0,1-2.34-1.14,5.46,5.46,0,0,1-.79-3.12v-.21a6.37,6.37,0,0,1,.8-3.37,2.58,2.58,0,0,1,2.35-1.28,3,3,0,0,1,1.94.59A3.68,3.68,0,0,1,280.58,67Z"/><path class="cls-1" d="M257.8,48l-.43.06a10.74,10.74,0,0,1-1.51.12,3,3,0,0,1-2.15-.8,3.79,3.79,0,0,1-.81-2.76V27.92h4.9v-4h-4.9V17.52h-5.08v6.37H243v4h4.8V44.6q0,4,1.83,5.87a6.59,6.59,0,0,0,4.92,1.87,13.24,13.24,0,0,0,2.79-.3l.44-.11Z"/><path class="cls-1" d="M168.06,47.8V35.11c0-3.92-.83-6.85-2.48-8.81a8.38,8.38,0,0,0-6.76-2.92,9.11,9.11,0,0,0-5,1.39,10.42,10.42,0,0,0-3.48,3.76,7.78,7.78,0,0,0-3-3.86,8.6,8.6,0,0,0-4.78-1.29,10.62,10.62,0,0,0-4.9,1.08,9.11,9.11,0,0,0-3.27,2.83v-3.4h-8.82v3.28l3.74.72V47.8l-3.74.72v3.27h12.55V48.52l-3.73-.72V31.14a6.09,6.09,0,0,1,2.29-2.68,7,7,0,0,1,3.82-1,5.08,5.08,0,0,1,4.21,1.82c1,1.21,1.46,3.13,1.46,5.74V47.8l-3.74.72v3.27h12.56V48.52l-3.74-.72V34.08a8.17,8.17,0,0,1,1.87-4.71,5.38,5.38,0,0,1,4.27-1.87,5.12,5.12,0,0,1,4.2,1.72Q163,30.93,163,35.06V47.8l-3.74.72v3.27h12.58V48.52Z"/><path class="cls-1" d="M196.35,47.8V23.89h-8.82v3.28l3.74.72V41.61a8.18,8.18,0,0,1-1.87,4.7,5.36,5.36,0,0,1-4.27,1.87,5.13,5.13,0,0,1-4.2-1.71q-1.43-1.71-1.42-5.84V23.89h-8.85v3.28l3.74.72V40.58q0,5.88,2.48,8.8a8.38,8.38,0,0,0,6.75,2.93,9.15,9.15,0,0,0,5.06-1.39,10.27,10.27,0,0,0,2.58-2.43v3.3h8.82V48.52Z"/><polygon class="cls-1" points="211.97 47.8 211.97 14.25 203.15 14.25 203.15 17.52 206.89 18.25 206.89 47.8 203.15 48.52 203.15 51.79 215.71 51.79 215.71 48.52 211.97 47.8"/><polygon class="cls-1" points="50.88 18.25 54.62 17.52 54.62 14.25 42.06 14.25 42.06 17.52 45.8 18.25 45.8 47.8 42.06 48.52 42.06 51.79 54.62 51.79 54.62 48.52 50.88 47.8 50.88 18.25"/><path class="cls-1" d="M278.79,46.85a12.71,12.71,0,0,1-6.09,1.35c-7.64,0-7.53-8.7-7.53-8.7h18.18s2.07-16.12-11.42-16.12c-8.11,0-11.94,7.84-11.94,13.87,0,13.5,8.69,15.09,12.71,15.09A14.37,14.37,0,0,0,282,49.4Zm-6.86-19.48c7,0,6.34,8.13,6.34,8.13h-13.1S266.33,27.37,271.93,27.37Z"/><path class="cls-1" d="M98.91,55.79,85.8,45.55A21.68,21.68,0,0,0,89.43,33c0-11.43-7.09-19.31-16.62-19.31S56.19,21.59,56.19,33s7.1,19.32,16.62,19.32a15.46,15.46,0,0,0,9.92-3.5l8.9,6.95ZM72.81,48.2C66.2,48.2,61.27,42,61.27,33S66.2,17.84,72.81,17.84,84.35,24,84.35,33,79.43,48.2,72.81,48.2Z"/><path class="cls-1" d="M118.7,47.8V23.89h-8.82v3.28l3.74.72V41.61a8.11,8.11,0,0,1-1.87,4.7,5.35,5.35,0,0,1-4.27,1.87,5.14,5.14,0,0,1-4.2-1.71q-1.43-1.71-1.42-5.84V23.89H93v3.28l3.73.72V40.58q0,5.88,2.48,8.8A8.39,8.39,0,0,0,106,52.31,9.11,9.11,0,0,0,111,50.92a10.27,10.27,0,0,0,2.58-2.43v3.3h8.82V48.52Z"/><path class="cls-1" d="M240.74,47.8V32.74a8.49,8.49,0,0,0-2.94-6.94,11.72,11.72,0,0,0-7.69-2.42,18.3,18.3,0,0,0-5.88.91,15,15,0,0,0-4.61,2.44v5.41h3.27l.73-3.73c6.09-2.38,9.46-.56,10.49.39a5.05,5.05,0,0,1,1.55,3.89V35.5c-5.83,0-17.25,0-17.25,8.71,0,7.32,6,8.13,8.89,8.13A11,11,0,0,0,235.66,48v3.81h8.82V48.52Zm-5.08-4a8.62,8.62,0,0,1-7.61,4.45c-1.53,0-4.56-.36-4.56-3.76,0-5.43,9.57-5,12.17-5Z"/><path class="cls-2" d="M37.91,11H14L0,0H23.86ZM0,25.22H23.86l14-11H14Z"/></g></g></svg>